<svg width="51" height="51" viewBox="0 0 51 51" fill="none" xmlns="http://www.w3.org/2000/svg">
<path d="M18.1263 22.3763C17.9804 22.5328 17.8044 22.6584 17.6089 22.7455C17.4134 22.8326 17.2024 22.8795 16.9884 22.8833C16.7744 22.887 16.5618 22.8477 16.3634 22.7675C16.1649 22.6874 15.9847 22.568 15.8333 22.4167C15.682 22.2654 15.5627 22.0851 15.4825 21.8866C15.4024 21.6882 15.363 21.4756 15.3668 21.2616C15.3705 21.0476 15.4174 20.8366 15.5045 20.6411C15.5916 20.4456 15.7172 20.2697 15.8738 20.1238L24.3738 11.6238C24.6726 11.3253 25.0777 11.1577 25.5 11.1577C25.9224 11.1577 26.3274 11.3253 26.6263 11.6238L35.1263 20.1238C35.2829 20.2697 35.4084 20.4456 35.4956 20.6411C35.5827 20.8366 35.6295 21.0476 35.6333 21.2616C35.6371 21.4756 35.5977 21.6882 35.5175 21.8866C35.4374 22.0851 35.3181 22.2654 35.1667 22.4167C35.0154 22.568 34.8351 22.6874 34.6367 22.7675C34.4382 22.8477 34.2257 22.887 34.0117 22.8833C33.7977 22.8795 33.5866 22.8326 33.3911 22.7455C33.1956 22.6584 33.0197 22.5328 32.8738 22.3763L27.0938 16.5963V37.1875C27.0938 37.6102 26.9259 38.0156 26.627 38.3145C26.3281 38.6133 25.9227 38.7813 25.5 38.7813C25.0773 38.7813 24.672 38.6133 24.3731 38.3145C24.0742 38.0156 23.9063 37.6102 23.9063 37.1875V16.5963L18.1263 22.3763Z" fill="white"/>
</svg>
